<?xml version="1.0" encoding="utf-8"?>
<!-- Generator: Adobe Illustrator 19.0.1, SVG Export Plug-In . SVG Version: 6.00 Build 0)  -->
<svg version="1.1" xmlns="http://www.w3.org/2000/svg" xmlns:xlink="http://www.w3.org/1999/xlink" x="0px" y="0px"
	 viewBox="0 0 305.5 113.8" style="enable-background:new 0 0 305.5 113.8;" xml:space="preserve">
<style type="text/css">
	.st0{display:none;}
	.st1{display:inline;}
	.st2{fill:#ED1848;}
	.st3{fill-rule:evenodd;clip-rule:evenodd;fill:#ED1848;}
	.st4{fill:#D01F3C;}
	.st5{fill-rule:evenodd;clip-rule:evenodd;fill:#D01F3C;}
	.st6{fill:#FFFFFF;}
	.st7{fill-rule:evenodd;clip-rule:evenodd;fill:#FFFFFF;}
	.st8{fill:#00271E;}
	.st9{fill-rule:evenodd;clip-rule:evenodd;fill:#00271E;}
	.st10{fill:#1E3632;}
	.st11{fill-rule:evenodd;clip-rule:evenodd;fill:#1E3632;}
	.st12{fill-rule:evenodd;clip-rule:evenodd;}
</style>
<g id="_x31_99_EC" class="st0">
	<g class="st1">
		<g>
			<polygon class="st2" points="0,39.2 18.5,57.5 55.2,21.1 36.7,2.8 0,2.8 0,39.2 			"/>
			<polygon class="st2" points="36.7,112.3 55.2,94 18.5,57.5 0,75.9 0,112.3 36.7,112.3 			"/>
			<polygon class="st2" points="55.2,94 73.7,112.3 110.1,112.3 110.1,75.6 91.9,57.5 55.2,94 			"/>
			<polygon class="st2" points="91.9,57.5 110.1,39.5 110.1,2.8 73.7,2.8 55.2,21.1 91.9,57.5 			"/>
		</g>
		<g>
			<g>
				<g>
					<path class="st3" d="M305.5,48.8l-1.2-5.4c-1.6,0.4-2.3,0.7-3.2,0.7c-3.1,0-4-1.2-4-5.6V21.3h5.7l2.4-6.3h-8.1V5.6l-9,1.4v8
						h-3.5v6.3h3.5V40c0,3.2,0,3.8,0.6,5.3c1,3.1,4.7,5.1,9.3,5.1C300.3,50.4,302.8,49.8,305.5,48.8z"/>
					<polygon class="st3" points="163.6,49.5 147.3,24.4 162,2.8 150.8,2.8 137.4,24.1 137.4,2.8 127.8,2.8 127.8,49.5 137.4,49.5 
						137.4,25.1 151.6,49.5 					"/>
					<path class="st3" d="M193.5,49.5V24.4c0-2.2-0.1-3.7-0.6-5c-1-2.9-4.6-5-8.4-5c-2.1,0-4.4,0.4-6.2,1.5c-1.5,0.7-2.9,1.9-4,3.2
						l-0.6-4.6l-7.7,1.2v33.7h9.1V29.2c0-2.5,0.7-4.2,1.9-5.4c1.3-1.2,2.8-1.8,4.3-1.8c2.5,0,3.2,1.6,3.2,5.5v21.9H193.5z"/>
					<polygon class="st3" points="209.5,49.5 209.5,14.3 200.4,15.8 200.4,49.5 					"/>
					<g>
						<g>
							<path class="st3" d="M237.6,15.4c0,0-0.5,1.9-0.6,2.7c-1.6-1.8-4.4-3.6-7.8-3.6c-10.7,0-14.3,9.6-14.3,18.7
								c0,8.5,3.7,16.8,13.8,16.8c2.8,0,6-1.6,7.1-3.4v2.9c0,5.2-0.4,7.7-7.2,7.7c-3.2,0-7.1-1.2-10.4-2.9l-2.2,6.3
								c4.4,2.2,8.5,3.5,13.1,3.5c3.5,0,8.5-0.6,11.8-3.4c3.4-2.8,3.5-7.7,3.5-12.6l0-33.9L237.6,15.4z M235.8,35.8
								c0,1.6-0.2,3.2-0.7,4.5c-0.7,1.6-2.2,2.6-4.1,2.6c-5.4,0-6-3.8-6-10.9c0-6.4,1.2-10.2,5.9-10.2c2.3,0,4.1,1.2,5,2.2V35.8z"/>
						</g>
					</g>
					<path class="st3" d="M279.9,49.5V25.4c0-3.4-0.2-4.4-0.9-6.3c-1-3.1-4.6-5-9-5c-4,0-7.4,1.4-9.9,4.2c0-0.4,0.1-2.5,0.1-3.5v-13
						l-9.3,1.5v46.1h9.3v-19c0-3.2,0.4-5,1.5-6.3c1.4-1.6,3.7-2.5,5.7-2.5c2.6,0,3.5,1.5,3.5,4.7v23.1H279.9z"/>
				</g>
				<circle class="st3" cx="205" cy="5.6" r="5.6"/>
			</g>
			<g>
				<g>
					<path class="st3" d="M203.6,100.7l0.1-11.7c0-3.6-0.1-4.7-0.6-6.1c-1.3-3.8-5.3-6-11.2-6c-3.2,0-6.2,0.6-9.6,2
						c-1.9,0.8-3.7,1.8-5.5,2.9l3.3,6c4.1-2.6,7.4-3.6,10.4-3.6c3.4,0,4.2,1.5,4.2,5.3v1.3h-2.1c-11,0-16.6,3.8-16.6,11.8
						c0,6.3,3.4,10.1,9.9,10.7h3.7c2.1-0.2,3.8-0.9,5.2-1.8c0.7-0.4,1.5-1.2,2.2-1.9c0.7,1.4,2.2,2.8,3.8,3.7l1.1,0.5l0.5-0.5l4.7-5
						C204,106,203.6,104.3,203.6,100.7z M189.7,106.9c-2.4,0-4-1.9-4-4.5c0-4.1,2.1-5.6,8.4-5.6h0.5l0,8
						C193.3,106.2,191.5,106.9,189.7,106.9z"/>
				</g>
			</g>
			<polygon class="st3" points="153.2,65.4 127.7,65.4 127.7,112.1 137,112.1 137,91.4 149.1,91.4 149.1,83.8 137,83.8 137,72.9 
				152,72.9 			"/>
			<path class="st3" d="M174.4,77.5c-1.5-0.6-2.1-0.7-3.4-0.7c-3.4,0-6.8,3.1-8.2,5.4l-0.9-4.7l-7.4,1.2v33.4h9.1V90.8
				c0-1.7,0.3-3.2,1.3-4.3c0.9-0.9,2.4-1.6,4-1.6c1,0,2.2,0.3,3.1,0.7L174.4,77.5z"/>
			<polygon class="st3" points="245.5,66.3 245.5,112.1 254.6,112.1 254.6,64.9 			"/>
			<polygon class="st3" points="263.4,92.1 274.6,77.7 263.6,77.7 254.6,92.6 266.4,112.1 277.1,112.1 			"/>
			<path class="st3" d="M238.6,112.1V87c0-2.2-0.1-3.6-0.6-5c-1-2.9-4.6-5-8.4-5c-2.1,0-4.4,0.4-6.2,1.5c-1.5,0.7-2.9,1.9-4,3.2
				l-0.6-4.6l-7.7,1.2v33.7h9.1V91.8c0-2.5,0.7-4.2,1.9-5.4c1.3-1.2,2.8-1.8,4.3-1.8c2.5,0,3.2,1.6,3.2,5.6v21.9H238.6z"/>
		</g>
	</g>
</g>
<g id="_x31_99_RGB" class="st0">
	<g class="st1">
		<g>
			<polygon class="st4" points="0,39.2 18.5,57.5 55.2,21.1 36.7,2.8 0,2.8 0,39.2 			"/>
			<polygon class="st4" points="36.7,112.3 55.2,94 18.5,57.5 0,75.9 0,112.3 36.7,112.3 			"/>
			<polygon class="st4" points="55.2,94 73.7,112.3 110.1,112.3 110.1,75.6 91.9,57.5 55.2,94 			"/>
			<polygon class="st4" points="91.9,57.5 110.1,39.5 110.1,2.8 73.7,2.8 55.2,21.1 91.9,57.5 			"/>
		</g>
		<g>
			<g>
				<g>
					<path class="st5" d="M305.5,48.8l-1.2-5.4c-1.6,0.4-2.3,0.7-3.2,0.7c-3.1,0-4-1.2-4-5.6V21.3h5.7l2.4-6.3h-8.1V5.6l-9,1.4v8
						h-3.5v6.3h3.5V40c0,3.2,0,3.8,0.6,5.3c1,3.1,4.7,5.1,9.3,5.1C300.3,50.4,302.8,49.8,305.5,48.8z"/>
					<polygon class="st5" points="163.6,49.5 147.3,24.4 162,2.8 150.8,2.8 137.4,24.1 137.4,2.8 127.8,2.8 127.8,49.5 137.4,49.5 
						137.4,25.1 151.6,49.5 					"/>
					<path class="st5" d="M193.5,49.5V24.4c0-2.2-0.1-3.7-0.6-5c-1-2.9-4.6-5-8.4-5c-2.1,0-4.4,0.4-6.2,1.5c-1.5,0.7-2.9,1.9-4,3.2
						l-0.6-4.6l-7.7,1.2v33.7h9.1V29.2c0-2.5,0.7-4.2,1.9-5.4c1.3-1.2,2.8-1.8,4.3-1.8c2.5,0,3.2,1.6,3.2,5.5v21.9H193.5z"/>
					<polygon class="st5" points="209.5,49.5 209.5,14.3 200.4,15.8 200.4,49.5 					"/>
					<g>
						<g>
							<path class="st5" d="M237.6,15.4c0,0-0.5,1.9-0.6,2.7c-1.6-1.8-4.4-3.6-7.8-3.6c-10.7,0-14.3,9.6-14.3,18.7
								c0,8.5,3.7,16.8,13.8,16.8c2.8,0,6-1.6,7.1-3.4v2.9c0,5.2-0.4,7.7-7.2,7.7c-3.2,0-7.1-1.2-10.4-2.9l-2.2,6.3
								c4.4,2.2,8.5,3.5,13.1,3.5c3.5,0,8.5-0.6,11.8-3.4c3.4-2.8,3.5-7.7,3.5-12.6l0-33.9L237.6,15.4z M235.8,35.8
								c0,1.6-0.2,3.2-0.7,4.5c-0.7,1.6-2.2,2.6-4.1,2.6c-5.4,0-6-3.8-6-10.9c0-6.4,1.2-10.2,5.9-10.2c2.3,0,4.1,1.2,5,2.2V35.8z"/>
						</g>
					</g>
					<path class="st5" d="M279.9,49.5V25.4c0-3.4-0.2-4.4-0.9-6.3c-1-3.1-4.6-5-9-5c-4,0-7.4,1.4-9.9,4.2c0-0.4,0.1-2.5,0.1-3.5v-13
						l-9.3,1.5v46.1h9.3v-19c0-3.2,0.4-5,1.5-6.3c1.4-1.6,3.7-2.5,5.7-2.5c2.6,0,3.5,1.5,3.5,4.7v23.1H279.9z"/>
				</g>
				<circle class="st5" cx="205" cy="5.6" r="5.6"/>
			</g>
			<g>
				<g>
					<path class="st5" d="M203.6,100.7l0.1-11.7c0-3.6-0.1-4.7-0.6-6.1c-1.3-3.8-5.3-6-11.2-6c-3.2,0-6.2,0.6-9.6,2
						c-1.9,0.8-3.7,1.8-5.5,2.9l3.3,6c4.1-2.6,7.4-3.6,10.4-3.6c3.4,0,4.2,1.5,4.2,5.3v1.3h-2.1c-11,0-16.6,3.8-16.6,11.8
						c0,6.3,3.4,10.1,9.9,10.7h3.7c2.1-0.2,3.8-0.9,5.2-1.8c0.7-0.4,1.5-1.2,2.2-1.9c0.7,1.4,2.2,2.8,3.8,3.7l1.1,0.5l0.5-0.5l4.7-5
						C204,106,203.6,104.3,203.6,100.7z M189.7,106.9c-2.4,0-4-1.9-4-4.5c0-4.1,2.1-5.6,8.4-5.6h0.5l0,8
						C193.3,106.2,191.5,106.9,189.7,106.9z"/>
				</g>
			</g>
			<polygon class="st5" points="153.2,65.4 127.7,65.4 127.7,112.1 137,112.1 137,91.4 149.1,91.4 149.1,83.8 137,83.8 137,72.9 
				152,72.9 			"/>
			<path class="st5" d="M174.4,77.5c-1.5-0.6-2.1-0.7-3.4-0.7c-3.4,0-6.8,3.1-8.2,5.4l-0.9-4.7l-7.4,1.2v33.4h9.1V90.8
				c0-1.7,0.3-3.2,1.3-4.3c0.9-0.9,2.4-1.6,4-1.6c1,0,2.2,0.3,3.1,0.7L174.4,77.5z"/>
			<polygon class="st5" points="245.5,66.3 245.5,112.1 254.6,112.1 254.6,64.9 			"/>
			<polygon class="st5" points="263.4,92.1 274.6,77.7 263.6,77.7 254.6,92.6 266.4,112.1 277.1,112.1 			"/>
			<path class="st5" d="M238.6,112.1V87c0-2.2-0.1-3.6-0.6-5c-1-2.9-4.6-5-8.4-5c-2.1,0-4.4,0.4-6.2,1.5c-1.5,0.7-2.9,1.9-4,3.2
				l-0.6-4.6l-7.7,1.2v33.7h9.1V91.8c0-2.5,0.7-4.2,1.9-5.4c1.3-1.2,2.8-1.8,4.3-1.8c2.5,0,3.2,1.6,3.2,5.6v21.9H238.6z"/>
		</g>
	</g>
</g>
<g id="_x31_99_PMS">
	<g>
		<g>
			<polygon class="st6" points="0,39.2 18.5,57.5 55.2,21.1 36.7,2.8 0,2.8 0,39.2 			"/>
			<polygon class="st6" points="36.7,112.3 55.2,94 18.5,57.5 0,75.9 0,112.3 36.7,112.3 			"/>
			<polygon class="st6" points="55.2,94 73.7,112.3 110.1,112.3 110.1,75.6 91.9,57.5 55.2,94 			"/>
			<polygon class="st6" points="91.9,57.5 110.1,39.5 110.1,2.8 73.7,2.8 55.2,21.1 91.9,57.5 			"/>
		</g>
		<g>
			<g>
				<g>
					<path class="st7" d="M305.5,48.8l-1.2-5.4c-1.6,0.4-2.3,0.7-3.2,0.7c-3.1,0-4-1.2-4-5.6V21.3h5.7l2.4-6.3h-8.1V5.6l-9,1.4v8
						h-3.5v6.3h3.5V40c0,3.2,0,3.8,0.6,5.3c1,3.1,4.7,5.1,9.3,5.1C300.3,50.4,302.8,49.8,305.5,48.8z"/>
					<polygon class="st7" points="163.6,49.5 147.3,24.4 162,2.8 150.8,2.8 137.4,24.1 137.4,2.8 127.8,2.8 127.8,49.5 137.4,49.5 
						137.4,25.1 151.6,49.5 					"/>
					<path class="st7" d="M193.5,49.5V24.4c0-2.2-0.1-3.7-0.6-5c-1-2.9-4.6-5-8.4-5c-2.1,0-4.4,0.4-6.2,1.5c-1.5,0.7-2.9,1.9-4,3.2
						l-0.6-4.6l-7.7,1.2v33.7h9.1V29.2c0-2.5,0.7-4.2,1.9-5.4c1.3-1.2,2.8-1.8,4.3-1.8c2.5,0,3.2,1.6,3.2,5.5v21.9H193.5z"/>
					<polygon class="st7" points="209.5,49.5 209.5,14.3 200.4,15.8 200.4,49.5 					"/>
					<g>
						<g>
							<path class="st7" d="M237.6,15.4c0,0-0.5,1.9-0.6,2.7c-1.6-1.8-4.4-3.6-7.8-3.6c-10.7,0-14.3,9.6-14.3,18.7
								c0,8.5,3.7,16.8,13.8,16.8c2.8,0,6-1.6,7.1-3.4v2.9c0,5.2-0.4,7.7-7.2,7.7c-3.2,0-7.1-1.2-10.4-2.9l-2.2,6.3
								c4.4,2.2,8.5,3.5,13.1,3.5c3.5,0,8.5-0.6,11.8-3.4c3.4-2.8,3.5-7.7,3.5-12.6l0-33.9L237.6,15.4z M235.8,35.8
								c0,1.6-0.2,3.2-0.7,4.5c-0.7,1.6-2.2,2.6-4.1,2.6c-5.4,0-6-3.8-6-10.9c0-6.4,1.2-10.2,5.9-10.2c2.3,0,4.1,1.2,5,2.2V35.8z"/>
						</g>
					</g>
					<path class="st7" d="M279.9,49.5V25.4c0-3.4-0.2-4.4-0.9-6.3c-1-3.1-4.6-5-9-5c-4,0-7.4,1.4-9.9,4.2c0-0.4,0.1-2.5,0.1-3.5v-13
						l-9.3,1.5v46.1h9.3v-19c0-3.2,0.4-5,1.5-6.3c1.4-1.6,3.7-2.5,5.7-2.5c2.6,0,3.5,1.5,3.5,4.7v23.1H279.9z"/>
				</g>
				<circle class="st7" cx="205" cy="5.6" r="5.6"/>
			</g>
			<g>
				<g>
					<path class="st7" d="M203.6,100.7l0.1-11.7c0-3.6-0.1-4.7-0.6-6.1c-1.3-3.8-5.3-6-11.2-6c-3.2,0-6.2,0.6-9.6,2
						c-1.9,0.8-3.7,1.8-5.5,2.9l3.3,6c4.1-2.6,7.4-3.6,10.4-3.6c3.4,0,4.2,1.5,4.2,5.3v1.3h-2.1c-11,0-16.6,3.8-16.6,11.8
						c0,6.3,3.4,10.1,9.9,10.7h3.7c2.1-0.2,3.8-0.9,5.2-1.8c0.7-0.4,1.5-1.2,2.2-1.9c0.7,1.4,2.2,2.8,3.8,3.7l1.1,0.5l0.5-0.5l4.7-5
						C204,106,203.6,104.3,203.6,100.7z M189.7,106.9c-2.4,0-4-1.9-4-4.5c0-4.1,2.1-5.6,8.4-5.6h0.5l0,8
						C193.3,106.2,191.5,106.9,189.7,106.9z"/>
				</g>
			</g>
			<polygon class="st7" points="153.2,65.4 127.7,65.4 127.7,112.1 137,112.1 137,91.4 149.1,91.4 149.1,83.8 137,83.8 137,72.9 
				152,72.9 			"/>
			<path class="st7" d="M174.4,77.5c-1.5-0.6-2.1-0.7-3.4-0.7c-3.4,0-6.8,3.1-8.2,5.4l-0.9-4.7l-7.4,1.2v33.4h9.1V90.8
				c0-1.7,0.3-3.2,1.3-4.3c0.9-0.9,2.4-1.6,4-1.6c1,0,2.2,0.3,3.1,0.7L174.4,77.5z"/>
			<polygon class="st7" points="245.5,66.3 245.5,112.1 254.6,112.1 254.6,64.9 			"/>
			<polygon class="st7" points="263.4,92.1 274.6,77.7 263.6,77.7 254.6,92.6 266.5,112.1 277.1,112.1 			"/>
			<path class="st7" d="M238.6,112.1V87c0-2.2-0.1-3.6-0.6-5c-1-2.9-4.6-5-8.4-5c-2.1,0-4.4,0.4-6.2,1.5c-1.5,0.7-2.9,1.9-4,3.2
				l-0.6-4.6l-7.7,1.2v33.7h9.1V91.8c0-2.5,0.7-4.2,1.9-5.4c1.3-1.2,2.8-1.8,4.3-1.8c2.5,0,3.2,1.6,3.2,5.6v21.9H238.6z"/>
		</g>
	</g>
</g>
<g id="White_1_" class="st0">
	<g class="st1">
		<g>
			<polygon class="st6" points="0,39.2 18.5,57.5 55.2,21.1 36.7,2.8 0,2.8 0,39.2 			"/>
			<polygon class="st6" points="36.7,112.3 55.2,94 18.5,57.5 0,75.9 0,112.3 36.7,112.3 			"/>
			<polygon class="st6" points="55.2,94 73.7,112.3 110.1,112.3 110.1,75.6 91.9,57.5 55.2,94 			"/>
			<polygon class="st6" points="91.9,57.5 110.1,39.5 110.1,2.8 73.7,2.8 55.2,21.1 91.9,57.5 			"/>
		</g>
		<g>
			<g>
				<g>
					<path class="st6" d="M305.5,48.8l-1.2-5.4c-1.6,0.4-2.3,0.7-3.2,0.7c-3.1,0-4-1.2-4-5.6V21.3h5.7l2.4-6.3h-8.1V5.6l-9,1.4v8
						h-3.5v6.3h3.5V40c0,3.2,0,3.8,0.6,5.3c1,3.1,4.7,5.1,9.3,5.1C300.3,50.4,302.8,49.8,305.5,48.8z"/>
					<polygon class="st6" points="163.6,49.5 147.3,24.4 162,2.8 150.8,2.8 137.4,24.1 137.4,2.8 127.8,2.8 127.8,49.5 137.4,49.5 
						137.4,25.1 151.6,49.5 					"/>
					<path class="st6" d="M193.5,49.5V24.4c0-2.2-0.1-3.7-0.6-5c-1-2.9-4.6-5-8.4-5c-2.1,0-4.4,0.4-6.2,1.5c-1.5,0.7-2.9,1.9-4,3.2
						l-0.6-4.6l-7.7,1.2v33.7h9.1V29.2c0-2.5,0.7-4.2,1.9-5.4c1.3-1.2,2.8-1.8,4.3-1.8c2.5,0,3.2,1.6,3.2,5.5v21.9H193.5z"/>
					<polygon class="st6" points="209.5,49.5 209.5,14.3 200.4,15.8 200.4,49.5 					"/>
					<g>
						<g>
							<path class="st6" d="M237.6,15.4c0,0-0.5,1.9-0.6,2.7c-1.6-1.8-4.4-3.6-7.8-3.6c-10.7,0-14.3,9.6-14.3,18.7
								c0,8.5,3.7,16.8,13.8,16.8c2.8,0,6-1.6,7.1-3.4v2.9c0,5.2-0.4,7.7-7.2,7.7c-3.2,0-7.1-1.2-10.4-2.9l-2.2,6.3
								c4.4,2.2,8.5,3.5,13.1,3.5c3.5,0,8.5-0.6,11.8-3.4c3.4-2.8,3.5-7.7,3.5-12.6l0-33.9L237.6,15.4z M235.8,35.8
								c0,1.6-0.2,3.2-0.7,4.5c-0.7,1.6-2.2,2.6-4.1,2.6c-5.4,0-6-3.8-6-10.9c0-6.4,1.2-10.2,5.9-10.2c2.3,0,4.1,1.2,5,2.2V35.8z"/>
						</g>
					</g>
					<path class="st6" d="M279.9,49.5V25.4c0-3.4-0.2-4.4-0.9-6.3c-1-3.1-4.6-5-9-5c-4,0-7.4,1.4-9.9,4.2c0-0.4,0.1-2.5,0.1-3.5v-13
						l-9.3,1.5v46.1h9.3v-19c0-3.2,0.4-5,1.5-6.3c1.4-1.6,3.7-2.5,5.7-2.5c2.6,0,3.5,1.5,3.5,4.7v23.1H279.9z"/>
				</g>
				<circle class="st6" cx="205" cy="5.6" r="5.6"/>
			</g>
			<g>
				<g>
					<path class="st6" d="M203.6,100.7l0.1-11.7c0-3.6-0.1-4.7-0.6-6.1c-1.3-3.8-5.3-6-11.2-6c-3.2,0-6.2,0.6-9.6,2
						c-1.9,0.8-3.7,1.8-5.5,2.9l3.3,6c4.1-2.6,7.4-3.6,10.4-3.6c3.4,0,4.2,1.5,4.2,5.3v1.3h-2.1c-11,0-16.6,3.8-16.6,11.8
						c0,6.3,3.4,10.1,9.9,10.7h3.7c2.1-0.2,3.8-0.9,5.2-1.8c0.7-0.4,1.5-1.2,2.2-1.9c0.7,1.4,2.2,2.8,3.8,3.7l1.1,0.5l0.5-0.5l4.7-5
						C204,106,203.6,104.3,203.6,100.7z M189.7,106.9c-2.4,0-4-1.9-4-4.5c0-4.1,2.1-5.6,8.4-5.6h0.5l0,8
						C193.3,106.2,191.5,106.9,189.7,106.9z"/>
				</g>
			</g>
			<polygon class="st6" points="153.2,65.4 127.7,65.4 127.7,112.1 137,112.1 137,91.4 149.1,91.4 149.1,83.8 137,83.8 137,72.9 
				152,72.9 			"/>
			<path class="st6" d="M174.4,77.5c-1.5-0.6-2.1-0.7-3.4-0.7c-3.4,0-6.8,3.1-8.2,5.4l-0.9-4.7l-7.4,1.2v33.4h9.1V90.8
				c0-1.7,0.3-3.2,1.3-4.3c0.9-0.9,2.4-1.6,4-1.6c1,0,2.2,0.3,3.1,0.7L174.4,77.5z"/>
			<polygon class="st6" points="245.5,66.3 245.5,112.1 254.6,112.1 254.6,64.9 			"/>
			<polygon class="st6" points="263.4,92.1 274.6,77.7 263.6,77.7 254.6,92.6 266.4,112.1 277.1,112.1 			"/>
			<path class="st6" d="M238.6,112.1V87c0-2.2-0.1-3.6-0.6-5c-1-2.9-4.6-5-8.4-5c-2.1,0-4.4,0.4-6.2,1.5c-1.5,0.7-2.9,1.9-4,3.2
				l-0.6-4.6l-7.7,1.2v33.7h9.1V91.8c0-2.5,0.7-4.2,1.9-5.4c1.3-1.2,2.8-1.8,4.3-1.8c2.5,0,3.2,1.6,3.2,5.6v21.9H238.6z"/>
		</g>
	</g>
</g>
<g id="_x35_535_EC" class="st0">
	<g class="st1">
		<g>
			<polygon class="st8" points="0,39.2 18.5,57.5 55.2,21.1 36.7,2.8 0,2.8 0,39.2 			"/>
			<polygon class="st8" points="36.7,112.3 55.2,94 18.5,57.5 0,75.9 0,112.3 36.7,112.3 			"/>
			<polygon class="st8" points="55.2,94 73.7,112.3 110.1,112.3 110.1,75.6 91.9,57.5 55.2,94 			"/>
			<polygon class="st8" points="91.9,57.5 110.1,39.5 110.1,2.8 73.7,2.8 55.2,21.1 91.9,57.5 			"/>
		</g>
		<g>
			<g>
				<g>
					<path class="st9" d="M305.5,48.8l-1.2-5.4c-1.6,0.4-2.3,0.7-3.2,0.7c-3.1,0-4-1.2-4-5.6V21.3h5.7l2.4-6.3h-8.1V5.6l-9,1.4v8
						h-3.5v6.3h3.5V40c0,3.2,0,3.8,0.6,5.3c1,3.1,4.7,5.1,9.3,5.1C300.3,50.4,302.8,49.8,305.5,48.8z"/>
					<polygon class="st9" points="163.6,49.5 147.3,24.4 162,2.8 150.8,2.8 137.4,24.1 137.4,2.8 127.8,2.8 127.8,49.5 137.4,49.5 
						137.4,25.1 151.6,49.5 					"/>
					<path class="st9" d="M193.5,49.5V24.4c0-2.2-0.1-3.7-0.6-5c-1-2.9-4.6-5-8.4-5c-2.1,0-4.4,0.4-6.2,1.5c-1.5,0.7-2.9,1.9-4,3.2
						l-0.6-4.6l-7.7,1.2v33.7h9.1V29.2c0-2.5,0.7-4.2,1.9-5.4c1.3-1.2,2.8-1.8,4.3-1.8c2.5,0,3.2,1.6,3.2,5.5v21.9H193.5z"/>
					<polygon class="st9" points="209.5,49.5 209.5,14.3 200.4,15.8 200.4,49.5 					"/>
					<g>
						<g>
							<path class="st9" d="M237.6,15.4c0,0-0.5,1.9-0.6,2.7c-1.6-1.8-4.4-3.6-7.8-3.6c-10.7,0-14.3,9.6-14.3,18.7
								c0,8.5,3.7,16.8,13.8,16.8c2.8,0,6-1.6,7.1-3.4v2.9c0,5.2-0.4,7.7-7.2,7.7c-3.2,0-7.1-1.2-10.4-2.9l-2.2,6.3
								c4.4,2.2,8.5,3.5,13.1,3.5c3.5,0,8.5-0.6,11.8-3.4c3.4-2.8,3.5-7.7,3.5-12.6l0-33.9L237.6,15.4z M235.8,35.8
								c0,1.6-0.2,3.2-0.7,4.5c-0.7,1.6-2.2,2.6-4.1,2.6c-5.4,0-6-3.8-6-10.9c0-6.4,1.2-10.2,5.9-10.2c2.3,0,4.1,1.2,5,2.2V35.8z"/>
						</g>
					</g>
					<path class="st9" d="M279.9,49.5V25.4c0-3.4-0.2-4.4-0.9-6.3c-1-3.1-4.6-5-9-5c-4,0-7.4,1.4-9.9,4.2c0-0.4,0.1-2.5,0.1-3.5v-13
						l-9.3,1.5v46.1h9.3v-19c0-3.2,0.4-5,1.5-6.3c1.4-1.6,3.7-2.5,5.7-2.5c2.6,0,3.5,1.5,3.5,4.7v23.1H279.9z"/>
				</g>
				<circle class="st9" cx="205" cy="5.6" r="5.6"/>
			</g>
			<g>
				<g>
					<path class="st9" d="M203.6,100.7l0.1-11.7c0-3.6-0.1-4.7-0.6-6.1c-1.3-3.8-5.3-6-11.2-6c-3.2,0-6.2,0.6-9.6,2
						c-1.9,0.8-3.7,1.8-5.5,2.9l3.3,6c4.1-2.6,7.4-3.6,10.4-3.6c3.4,0,4.2,1.5,4.2,5.3v1.3h-2.1c-11,0-16.6,3.8-16.6,11.8
						c0,6.3,3.4,10.1,9.9,10.7h3.7c2.1-0.2,3.8-0.9,5.2-1.8c0.7-0.4,1.5-1.2,2.2-1.9c0.7,1.4,2.2,2.8,3.8,3.7l1.1,0.5l0.5-0.5l4.7-5
						C204,106,203.6,104.3,203.6,100.7z M189.7,106.9c-2.4,0-4-1.9-4-4.5c0-4.1,2.1-5.6,8.4-5.6h0.5l0,8
						C193.3,106.2,191.5,106.9,189.7,106.9z"/>
				</g>
			</g>
			<polygon class="st9" points="153.2,65.4 127.7,65.4 127.7,112.1 137,112.1 137,91.4 149.1,91.4 149.1,83.8 137,83.8 137,72.9 
				152,72.9 			"/>
			<path class="st9" d="M174.4,77.5c-1.5-0.6-2.1-0.7-3.4-0.7c-3.4,0-6.8,3.1-8.2,5.4l-0.9-4.7l-7.4,1.2v33.4h9.1V90.8
				c0-1.7,0.3-3.2,1.3-4.3c0.9-0.9,2.4-1.6,4-1.6c1,0,2.2,0.3,3.1,0.7L174.4,77.5z"/>
			<polygon class="st9" points="245.5,66.3 245.5,112.1 254.6,112.1 254.6,64.9 			"/>
			<polygon class="st9" points="263.4,92.1 274.6,77.7 263.6,77.7 254.6,92.6 266.5,112.1 277.1,112.1 			"/>
			<path class="st9" d="M238.6,112.1V87c0-2.2-0.1-3.6-0.6-5c-1-2.9-4.6-5-8.4-5c-2.1,0-4.4,0.4-6.2,1.5c-1.5,0.7-2.9,1.9-4,3.2
				l-0.6-4.6l-7.7,1.2v33.7h9.1V91.8c0-2.5,0.7-4.2,1.9-5.4c1.3-1.2,2.8-1.8,4.3-1.8c2.5,0,3.2,1.6,3.2,5.6v21.9H238.6z"/>
		</g>
	</g>
</g>
<g id="_x35_535_EC_RGB" class="st0">
	<g class="st1">
		<g>
			<polygon class="st10" points="0,39.2 18.5,57.5 55.2,21.1 36.7,2.8 0,2.8 0,39.2 			"/>
			<polygon class="st10" points="36.7,112.3 55.2,94 18.5,57.5 0,75.9 0,112.3 36.7,112.3 			"/>
			<polygon class="st10" points="55.2,94 73.7,112.3 110.1,112.3 110.1,75.6 91.9,57.5 55.2,94 			"/>
			<polygon class="st10" points="91.9,57.5 110.1,39.5 110.1,2.8 73.7,2.8 55.2,21.1 91.9,57.5 			"/>
		</g>
		<g>
			<g>
				<g>
					<path class="st11" d="M305.5,48.8l-1.2-5.4c-1.6,0.4-2.3,0.7-3.2,0.7c-3.1,0-4-1.2-4-5.6V21.3h5.7l2.4-6.3h-8.1V5.6l-9,1.4v8
						h-3.5v6.3h3.5V40c0,3.2,0,3.8,0.6,5.3c1,3.1,4.7,5.1,9.3,5.1C300.3,50.4,302.8,49.8,305.5,48.8z"/>
					<polygon class="st11" points="163.6,49.5 147.3,24.4 162,2.8 150.8,2.8 137.4,24.1 137.4,2.8 127.8,2.8 127.8,49.5 137.4,49.5 
						137.4,25.1 151.6,49.5 					"/>
					<path class="st11" d="M193.5,49.5V24.4c0-2.2-0.1-3.7-0.6-5c-1-2.9-4.6-5-8.4-5c-2.1,0-4.4,0.4-6.2,1.5c-1.5,0.7-2.9,1.9-4,3.2
						l-0.6-4.6l-7.7,1.2v33.7h9.1V29.2c0-2.5,0.7-4.2,1.9-5.4c1.3-1.2,2.8-1.8,4.3-1.8c2.5,0,3.2,1.6,3.2,5.5v21.9H193.5z"/>
					<polygon class="st11" points="209.5,49.5 209.5,14.3 200.4,15.8 200.4,49.5 					"/>
					<g>
						<g>
							<path class="st11" d="M237.6,15.4c0,0-0.5,1.9-0.6,2.7c-1.6-1.8-4.4-3.6-7.8-3.6c-10.7,0-14.3,9.6-14.3,18.7
								c0,8.5,3.7,16.8,13.8,16.8c2.8,0,6-1.6,7.1-3.4v2.9c0,5.2-0.4,7.7-7.2,7.7c-3.2,0-7.1-1.2-10.4-2.9l-2.2,6.3
								c4.4,2.2,8.5,3.5,13.1,3.5c3.5,0,8.5-0.6,11.8-3.4c3.4-2.8,3.5-7.7,3.5-12.6l0-33.9L237.6,15.4z M235.8,35.8
								c0,1.6-0.2,3.2-0.7,4.5c-0.7,1.6-2.2,2.6-4.1,2.6c-5.4,0-6-3.8-6-10.9c0-6.4,1.2-10.2,5.9-10.2c2.3,0,4.1,1.2,5,2.2V35.8z"/>
						</g>
					</g>
					<path class="st11" d="M279.9,49.5V25.4c0-3.4-0.2-4.4-0.9-6.3c-1-3.1-4.6-5-9-5c-4,0-7.4,1.4-9.9,4.2c0-0.4,0.1-2.5,0.1-3.5
						v-13l-9.3,1.5v46.1h9.3v-19c0-3.2,0.4-5,1.5-6.3c1.4-1.6,3.7-2.5,5.7-2.5c2.6,0,3.5,1.5,3.5,4.7v23.1H279.9z"/>
				</g>
				<circle class="st11" cx="205" cy="5.6" r="5.6"/>
			</g>
			<g>
				<g>
					<path class="st11" d="M203.6,100.7l0.1-11.7c0-3.6-0.1-4.7-0.6-6.1c-1.3-3.8-5.3-6-11.2-6c-3.2,0-6.2,0.6-9.6,2
						c-1.9,0.8-3.7,1.8-5.5,2.9l3.3,6c4.1-2.6,7.4-3.6,10.4-3.6c3.4,0,4.2,1.5,4.2,5.3v1.3h-2.1c-11,0-16.6,3.8-16.6,11.8
						c0,6.3,3.4,10.1,9.9,10.7h3.7c2.1-0.2,3.8-0.9,5.2-1.8c0.7-0.4,1.5-1.2,2.2-1.9c0.7,1.4,2.2,2.8,3.8,3.7l1.1,0.5l0.5-0.5l4.7-5
						C204,106,203.6,104.3,203.6,100.7z M189.7,106.9c-2.4,0-4-1.9-4-4.5c0-4.1,2.1-5.6,8.4-5.6h0.5l0,8
						C193.3,106.2,191.5,106.9,189.7,106.9z"/>
				</g>
			</g>
			<polygon class="st11" points="153.2,65.4 127.7,65.4 127.7,112.1 137,112.1 137,91.4 149.1,91.4 149.1,83.8 137,83.8 137,72.9 
				152,72.9 			"/>
			<path class="st11" d="M174.4,77.5c-1.5-0.6-2.1-0.7-3.4-0.7c-3.4,0-6.8,3.1-8.2,5.4l-0.9-4.7l-7.4,1.2v33.4h9.1V90.8
				c0-1.7,0.3-3.2,1.3-4.3c0.9-0.9,2.4-1.6,4-1.6c1,0,2.2,0.3,3.1,0.7L174.4,77.5z"/>
			<polygon class="st11" points="245.5,66.3 245.5,112.1 254.6,112.1 254.6,64.9 			"/>
			<polygon class="st11" points="263.4,92.1 274.6,77.7 263.6,77.7 254.6,92.6 266.5,112.1 277.1,112.1 			"/>
			<path class="st11" d="M238.6,112.1V87c0-2.2-0.1-3.6-0.6-5c-1-2.9-4.6-5-8.4-5c-2.1,0-4.4,0.4-6.2,1.5c-1.5,0.7-2.9,1.9-4,3.2
				l-0.6-4.6l-7.7,1.2v33.7h9.1V91.8c0-2.5,0.7-4.2,1.9-5.4c1.3-1.2,2.8-1.8,4.3-1.8c2.5,0,3.2,1.6,3.2,5.6v21.9H238.6z"/>
		</g>
	</g>
</g>
<g id="Black" class="st0">
	<g class="st1">
		<g>
			<polygon points="0,39.2 18.5,57.5 55.2,21.1 36.7,2.8 0,2.8 0,39.2 			"/>
			<polygon points="36.7,112.3 55.2,94 18.5,57.5 0,75.9 0,112.3 36.7,112.3 			"/>
			<polygon points="55.2,94 73.7,112.3 110.1,112.3 110.1,75.6 91.9,57.5 55.2,94 			"/>
			<polygon points="91.9,57.5 110.1,39.5 110.1,2.8 73.7,2.8 55.2,21.1 91.9,57.5 			"/>
		</g>
		<g>
			<g>
				<g>
					<path class="st12" d="M305.5,48.8l-1.2-5.4c-1.6,0.4-2.3,0.7-3.2,0.7c-3.1,0-4-1.2-4-5.6V21.3h5.7l2.4-6.3h-8.1V5.6l-9,1.4v8
						h-3.5v6.3h3.5V40c0,3.2,0,3.8,0.6,5.3c1,3.1,4.7,5.1,9.3,5.1C300.3,50.4,302.8,49.8,305.5,48.8z"/>
					<polygon class="st12" points="163.6,49.5 147.3,24.4 162,2.8 150.8,2.8 137.4,24.1 137.4,2.8 127.8,2.8 127.8,49.5 137.4,49.5 
						137.4,25.1 151.6,49.5 					"/>
					<path class="st12" d="M193.5,49.5V24.4c0-2.2-0.1-3.7-0.6-5c-1-2.9-4.6-5-8.4-5c-2.1,0-4.4,0.4-6.2,1.5c-1.5,0.7-2.9,1.9-4,3.2
						l-0.6-4.6l-7.7,1.2v33.7h9.1V29.2c0-2.5,0.7-4.2,1.9-5.4c1.3-1.2,2.8-1.8,4.3-1.8c2.5,0,3.2,1.6,3.2,5.5v21.9H193.5z"/>
					<polygon class="st12" points="209.5,49.5 209.5,14.3 200.4,15.8 200.4,49.5 					"/>
					<g>
						<g>
							<path class="st12" d="M237.6,15.4c0,0-0.5,1.9-0.6,2.7c-1.6-1.8-4.4-3.6-7.8-3.6c-10.7,0-14.3,9.6-14.3,18.7
								c0,8.5,3.7,16.8,13.8,16.8c2.8,0,6-1.6,7.1-3.4v2.9c0,5.2-0.4,7.7-7.2,7.7c-3.2,0-7.1-1.2-10.4-2.9l-2.2,6.3
								c4.4,2.2,8.5,3.5,13.1,3.5c3.5,0,8.5-0.6,11.8-3.4c3.4-2.8,3.5-7.7,3.5-12.6l0-33.9L237.6,15.4z M235.8,35.8
								c0,1.6-0.2,3.2-0.7,4.5c-0.7,1.6-2.2,2.6-4.1,2.6c-5.4,0-6-3.8-6-10.9c0-6.4,1.2-10.2,5.9-10.2c2.3,0,4.1,1.2,5,2.2V35.8z"/>
						</g>
					</g>
					<path class="st12" d="M279.9,49.5V25.4c0-3.4-0.2-4.4-0.9-6.3c-1-3.1-4.6-5-9-5c-4,0-7.4,1.4-9.9,4.2c0-0.4,0.1-2.5,0.1-3.5
						v-13l-9.3,1.5v46.1h9.3v-19c0-3.2,0.4-5,1.5-6.3c1.4-1.6,3.7-2.5,5.7-2.5c2.6,0,3.5,1.5,3.5,4.7v23.1H279.9z"/>
				</g>
				<circle class="st12" cx="205" cy="5.6" r="5.6"/>
			</g>
			<g>
				<g>
					<path class="st12" d="M203.6,100.7l0.1-11.7c0-3.6-0.1-4.7-0.6-6.1c-1.3-3.8-5.3-6-11.2-6c-3.2,0-6.2,0.6-9.6,2
						c-1.9,0.8-3.7,1.8-5.5,2.9l3.3,6c4.1-2.6,7.4-3.6,10.4-3.6c3.4,0,4.2,1.5,4.2,5.3v1.3h-2.1c-11,0-16.6,3.8-16.6,11.8
						c0,6.3,3.4,10.1,9.9,10.7h3.7c2.1-0.2,3.8-0.9,5.2-1.8c0.7-0.4,1.5-1.2,2.2-1.9c0.7,1.4,2.2,2.8,3.8,3.7l1.1,0.5l0.5-0.5l4.7-5
						C204,106,203.6,104.3,203.6,100.7z M189.7,106.9c-2.4,0-4-1.9-4-4.5c0-4.1,2.1-5.6,8.4-5.6h0.5l0,8
						C193.3,106.2,191.5,106.9,189.7,106.9z"/>
				</g>
			</g>
			<polygon class="st12" points="153.2,65.4 127.7,65.4 127.7,112.1 137,112.1 137,91.4 149.1,91.4 149.1,83.8 137,83.8 137,72.9 
				152,72.9 			"/>
			<path class="st12" d="M174.4,77.5c-1.5-0.6-2.1-0.7-3.4-0.7c-3.4,0-6.8,3.1-8.2,5.4l-0.9-4.7l-7.4,1.2v33.4h9.1V90.8
				c0-1.7,0.3-3.2,1.3-4.3c0.9-0.9,2.4-1.6,4-1.6c1,0,2.2,0.3,3.1,0.7L174.4,77.5z"/>
			<polygon class="st12" points="245.5,66.3 245.5,112.1 254.6,112.1 254.6,64.9 			"/>
			<polygon class="st12" points="263.4,92.1 274.6,77.7 263.6,77.7 254.6,92.6 266.5,112.1 277.1,112.1 			"/>
			<path class="st12" d="M238.6,112.1V87c0-2.2-0.1-3.6-0.6-5c-1-2.9-4.6-5-8.4-5c-2.1,0-4.4,0.4-6.2,1.5c-1.5,0.7-2.9,1.9-4,3.2
				l-0.6-4.6l-7.7,1.2v33.7h9.1V91.8c0-2.5,0.7-4.2,1.9-5.4c1.3-1.2,2.8-1.8,4.3-1.8c2.5,0,3.2,1.6,3.2,5.6v21.9H238.6z"/>
		</g>
	</g>
</g>
</svg>
